<svg width="81" height="57" viewBox="0 0 81 57" fill="none" xmlns="http://www.w3.org/2000/svg">
<path d="M4.09229 38.0343H22.5572C24.6115 38.0343 26.0046 36.3106 26.0046 34.5397C26.0046 32.6271 24.3753 31.234 22.5572 31.234H12.9942C7.5397 31.234 3.12418 26.6532 3.12418 21.2223C3.12418 15.7678 7.5397 11.3051 12.9942 11.3051H32.1674V18.2708H13.8206C12.0969 18.2708 10.6802 19.6875 10.6802 21.4112C10.6802 23.1349 12.0969 24.4336 13.8206 24.4336H23.4072C29.0034 24.4336 33.5842 29.1561 33.5842 34.7758C33.5842 40.3956 29.0034 44.9764 23.4072 44.9764H2.41581L4.09229 38.0343Z" fill="black"/>
<path d="M48.8617 11.3051H63.6902V18.2708H49.8534C44.4461 18.2708 40.0306 22.7099 40.0306 28.1407C40.0306 33.5716 44.4461 38.0343 49.8534 38.0343H63.9736L62.3207 44.9764H48.8617C39.8181 44.9764 32.451 37.5857 32.451 28.5185V27.7866C32.451 18.7194 39.8181 11.3051 48.8617 11.3051Z" fill="black"/>
<path d="M63.177 22.3664H64.5574C68.1463 22.3664 70.7509 25.1871 70.7509 28.86C70.7509 32.2809 67.9662 35.0896 64.5574 35.0896H63.177C59.5881 35.0896 56.9835 32.2689 56.9835 28.5839C56.9835 25.1631 59.7682 22.3664 63.177 22.3664ZM60.5724 28.728C60.5724 30.4084 61.9047 31.8007 63.5851 31.8007H64.1493C65.8297 31.8007 67.162 30.4084 67.162 28.728C67.162 27.0356 65.8297 25.6552 64.1493 25.6552H63.5851C61.9047 25.6552 60.5724 27.0356 60.5724 28.728Z" fill="black"/>
<path d="M4.42831 54.2553H7.35192C7.67718 54.2553 7.89776 53.9824 7.89776 53.702C7.89776 53.3992 7.6398 53.1786 7.35192 53.1786H5.83778C4.97415 53.1786 4.27503 52.4533 4.27503 51.5934C4.27503 50.7298 4.97415 50.0232 5.83778 50.0232H8.87355V51.1261H5.96863C5.69571 51.1261 5.47139 51.3504 5.47139 51.6233C5.47139 51.8962 5.69571 52.1019 5.96863 52.1019H7.48651C8.37257 52.1019 9.09786 52.8496 9.09786 53.7394C9.09786 54.6292 8.37257 55.3545 7.48651 55.3545H4.16287L4.42831 54.2553ZM10.2793 53.8628V52.4197H9.77082C9.93532 51.7355 9.85307 52.0794 10.0176 51.3953H10.2793V50.1839L11.3971 50.0793V51.3953H12.8253V52.4197H11.3971V54.3338H12.8253V55.3582H11.7672C10.9485 55.3582 10.2793 54.6853 10.2793 53.8628ZM15.9956 53.7431H14.6909C14.4927 53.7431 14.403 53.8889 14.403 54.0347C14.403 54.188 14.4964 54.3338 14.6909 54.3338H15.8311L15.5881 55.3582H14.5899C13.8684 55.3582 13.2777 54.7638 13.2777 54.0385C13.2777 53.3132 13.8684 52.7187 14.5899 52.7187H15.9956V52.4197H13.588L13.831 51.3953H15.6255C16.4443 51.3953 17.1135 52.0682 17.1135 52.8907V55.3545H15.9956V53.7431ZM19.5586 54.1843C20.2278 52.3262 19.895 53.2571 20.5605 51.3953H21.7793C20.882 53.9001 21.3307 52.6477 20.4297 55.1489C20.1866 55.8293 19.824 56.5845 18.9716 56.5845H18.0818V55.5601H19.0651L19.1398 55.3545C18.837 55.3358 18.6538 55.0367 18.5566 54.7825L17.3378 51.3953H18.5566L19.5586 54.1843ZM27.2564 50.0232H29.6043V51.1261H27.4134C26.5573 51.1261 25.8581 51.8289 25.8581 52.6888C25.8581 53.5487 26.5573 54.2553 27.4134 54.2553H29.6491L29.3874 55.3545H27.2564C25.8245 55.3545 24.658 54.1843 24.658 52.7487V52.6328C24.658 51.1971 25.8245 50.0232 27.2564 50.0232ZM32.2549 51.3953H32.6849C33.8027 51.3953 34.614 52.2738 34.614 53.4179C34.614 54.4834 33.7467 55.3582 32.6849 55.3582H32.2549C31.1371 55.3582 30.3258 54.4796 30.3258 53.3319C30.3258 52.2664 31.1932 51.3953 32.2549 51.3953ZM31.4437 53.3767C31.4437 53.9001 31.8586 54.3338 32.3821 54.3338H32.5578C33.0812 54.3338 33.4962 53.9001 33.4962 53.3767C33.4962 52.8496 33.0812 52.4197 32.5578 52.4197H32.3821C31.8586 52.4197 31.4437 52.8496 31.4437 53.3767ZM39.2013 55.3582H38.0835V52.4197H36.4086V55.3582H35.2907V51.3953H37.7133C38.5321 51.3953 39.2013 52.0682 39.2013 52.8907V55.3582ZM43.7849 55.3582H42.667V52.4197H40.9921V55.3582H39.8743V51.3953H42.2969C43.1157 51.3953 43.7849 52.0682 43.7849 52.8907V55.3582ZM48.3311 51.3953V52.4346C48.3311 53.2571 47.6618 53.9301 46.8431 53.9301H46.5328L45.9122 52.9057H47.2132V52.4197H46.5141C45.9907 52.4197 45.5757 52.8496 45.5757 53.3767C45.5757 53.9001 45.9907 54.3338 46.5141 54.3338H48.3834C48.2189 55.0143 48.3011 54.674 48.1366 55.3582H46.387C45.2691 55.3582 44.4578 54.4796 44.4578 53.3319C44.4578 52.2664 45.3252 51.3953 46.387 51.3953H48.3311ZM49.6246 51.9635C49.9835 51.6046 50.4696 51.3953 50.9855 51.3953H52.8473V52.4197H51.1126C50.5892 52.4197 50.1742 52.8496 50.1742 53.3767C50.1742 53.9001 50.5892 54.3338 51.1126 54.3338H52.8959L52.6529 55.3545L50.9855 55.3582C49.8676 55.3582 49.0564 54.4796 49.0564 53.3319C49.0564 52.8159 49.2657 52.3262 49.6246 51.9635ZM54.0811 53.8628V52.4197H53.5726C53.7371 51.7355 53.6549 52.0794 53.8194 51.3953H54.0811V50.1839L55.1989 50.0793V51.3953H56.6271V52.4197H55.1989V54.3338H56.6271V55.3582H55.569C54.7503 55.3582 54.0811 54.6853 54.0811 53.8628ZM60.9527 51.3953V52.4346C60.9527 53.2571 60.2835 53.9301 59.4647 53.9301H59.1544L58.5338 52.9057H59.8348V52.4197H59.1357C58.6123 52.4197 58.1973 52.8496 58.1973 53.3767C58.1973 53.9001 58.6123 54.3338 59.1357 54.3338H61.005C60.8405 55.0143 60.9228 54.674 60.7583 55.3582H59.0086C57.8907 55.3582 57.0795 54.4796 57.0795 53.3319C57.0795 52.2664 57.9468 51.3953 59.0086 51.3953H60.9527ZM63.6071 51.3953H64.6277V50.1839L65.7493 50.0793V53.8628C65.7493 54.6853 65.0801 55.3545 64.2614 55.3545L63.6071 55.3582C62.4893 55.3582 61.678 54.4796 61.678 53.3319C61.678 52.2664 62.5453 51.3953 63.6071 51.3953ZM64.6277 54.3338V52.4197H63.7342C63.2108 52.4197 62.7958 52.8496 62.7958 53.3767C62.7958 53.9001 63.2108 54.3338 63.7342 54.3338H64.6277Z" fill="#18181B"/>
</svg>
