<svg width="201" height="142" viewBox="0 0 201 142" fill="none" xmlns="http://www.w3.org/2000/svg">
<path d="M9.48828 94.7148H55.3086C60.4062 94.7148 63.8633 90.4375 63.8633 86.043C63.8633 81.2969 59.8203 77.8398 55.3086 77.8398H31.5781C18.043 77.8398 7.08594 66.4727 7.08594 52.9961C7.08594 39.4609 18.043 28.3867 31.5781 28.3867H79.1562V45.6719H33.6289C29.3516 45.6719 25.8359 49.1875 25.8359 53.4648C25.8359 57.7422 29.3516 60.9648 33.6289 60.9648H57.418C71.3047 60.9648 82.6719 72.6836 82.6719 86.6289C82.6719 100.574 71.3047 111.941 57.418 111.941H5.32812L9.48828 94.7148Z" fill="#4E53A2"/>
<path d="M121.082 28.3867H157.879V45.6719H123.543C110.125 45.6719 99.168 56.6875 99.168 70.1641C99.168 83.6406 110.125 94.7148 123.543 94.7148H158.582L154.48 111.941H121.082C98.6406 111.941 80.3594 93.6016 80.3594 71.1016V69.2852C80.3594 46.7852 98.6406 28.3867 121.082 28.3867Z" fill="#4E53A2"/>
<path d="M156.772 54.4277H160.198C169.104 54.4277 175.567 61.4272 175.567 70.5415C175.567 79.0303 168.657 86 160.198 86H156.772C147.867 86 141.403 79.0005 141.403 69.8564C141.403 61.3677 148.313 54.4277 156.772 54.4277ZM150.309 70.2139C150.309 74.3838 153.615 77.8389 157.785 77.8389H159.185C163.355 77.8389 166.661 74.3838 166.661 70.2139C166.661 66.0142 163.355 62.5889 159.185 62.5889H157.785C153.615 62.5889 150.309 66.0142 150.309 70.2139Z" fill="#4E53A2"/>
<path d="M10.9888 135.263H18.2437C19.0508 135.263 19.5981 134.586 19.5981 133.89C19.5981 133.139 18.958 132.591 18.2437 132.591H14.4863C12.3433 132.591 10.6084 130.792 10.6084 128.658C10.6084 126.515 12.3433 124.761 14.4863 124.761H22.0195V127.498H14.811C14.1338 127.498 13.5771 128.055 13.5771 128.732C13.5771 129.409 14.1338 129.919 14.811 129.919H18.5776C20.7764 129.919 22.5762 131.775 22.5762 133.983C22.5762 136.191 20.7764 137.991 18.5776 137.991H10.3301L10.9888 135.263ZM25.5078 134.289V130.708H24.2461C24.6543 129.01 24.4502 129.864 24.8584 128.166H25.5078V125.16L28.2817 124.9V128.166H31.8257V130.708H28.2817V135.458H31.8257V138H29.2002C27.1685 138 25.5078 136.33 25.5078 134.289ZM39.6929 133.992H36.4551C35.9634 133.992 35.7407 134.354 35.7407 134.716C35.7407 135.096 35.9727 135.458 36.4551 135.458H39.2847L38.6816 138H36.2046C34.4141 138 32.9482 136.525 32.9482 134.725C32.9482 132.925 34.4141 131.45 36.2046 131.45H39.6929V130.708H33.7183L34.3213 128.166H38.7744C40.8062 128.166 42.4668 129.836 42.4668 131.877V137.991H39.6929V133.992ZM48.5342 135.087C50.1948 130.476 49.3691 132.786 51.0205 128.166H54.0449C51.8184 134.382 52.9316 131.274 50.6958 137.48C50.0928 139.169 49.1929 141.043 47.0776 141.043H44.8696V138.501H47.3096L47.4951 137.991C46.7437 137.944 46.2891 137.202 46.0479 136.571L43.0234 128.166H46.0479L48.5342 135.087ZM67.6362 124.761H73.4624V127.498H68.0259C65.9014 127.498 64.1665 129.242 64.1665 131.376C64.1665 133.51 65.9014 135.263 68.0259 135.263H73.5737L72.9243 137.991H67.6362C64.083 137.991 61.1885 135.087 61.1885 131.524V131.237C61.1885 127.674 64.083 124.761 67.6362 124.761ZM80.04 128.166H81.1069C83.8809 128.166 85.894 130.346 85.894 133.185C85.894 135.829 83.7417 138 81.1069 138H80.04C77.2661 138 75.2529 135.82 75.2529 132.972C75.2529 130.328 77.4053 128.166 80.04 128.166ZM78.0269 133.083C78.0269 134.382 79.0566 135.458 80.3555 135.458H80.7915C82.0903 135.458 83.1201 134.382 83.1201 133.083C83.1201 131.775 82.0903 130.708 80.7915 130.708H80.3555C79.0566 130.708 78.0269 131.775 78.0269 133.083ZM97.2773 138H94.5034V130.708H90.3472V138H87.5732V128.166H93.585C95.6167 128.166 97.2773 129.836 97.2773 131.877V138ZM108.651 138H105.877V130.708H101.721V138H98.9473V128.166H104.959C106.991 128.166 108.651 129.836 108.651 131.877V138ZM119.933 128.166V130.745C119.933 132.786 118.272 134.456 116.24 134.456H115.47L113.93 131.914H117.159V130.708H115.424C114.125 130.708 113.095 131.775 113.095 133.083C113.095 134.382 114.125 135.458 115.424 135.458H120.062C119.654 137.146 119.858 136.302 119.45 138H115.108C112.334 138 110.321 135.82 110.321 132.972C110.321 130.328 112.474 128.166 115.108 128.166H119.933ZM123.143 129.576C124.033 128.686 125.239 128.166 126.52 128.166H131.14V130.708H126.835C125.536 130.708 124.506 131.775 124.506 133.083C124.506 134.382 125.536 135.458 126.835 135.458H131.26L130.657 137.991L126.52 138C123.746 138 121.732 135.82 121.732 132.972C121.732 131.691 122.252 130.476 123.143 129.576ZM134.201 134.289V130.708H132.939C133.348 129.01 133.144 129.864 133.552 128.166H134.201V125.16L136.975 124.9V128.166H140.519V130.708H136.975V135.458H140.519V138H137.894C135.862 138 134.201 136.33 134.201 134.289ZM151.253 128.166V130.745C151.253 132.786 149.592 134.456 147.561 134.456H146.791L145.25 131.914H148.479V130.708H146.744C145.445 130.708 144.416 131.775 144.416 133.083C144.416 134.382 145.445 135.458 146.744 135.458H151.383C150.975 137.146 151.179 136.302 150.771 138H146.429C143.655 138 141.642 135.82 141.642 132.972C141.642 130.328 143.794 128.166 146.429 128.166H151.253ZM157.84 128.166H160.373V125.16L163.156 124.9V134.289C163.156 136.33 161.495 137.991 159.463 137.991L157.84 138C155.066 138 153.053 135.82 153.053 132.972C153.053 130.328 155.205 128.166 157.84 128.166ZM160.373 135.458V130.708H158.155C156.856 130.708 155.827 131.775 155.827 133.083C155.827 134.382 156.856 135.458 158.155 135.458H160.373Z" fill="#4E53A2"/>
</svg>
